<svg xmlns="http://www.w3.org/2000/svg" width="150" height="150" viewBox="0 0 150 150">
  <title>hair</title>
  <g>
    <rect x="7.24" y="7.24" width="135.51" height="135.51" rx="15" ry="15" fill="none" stroke="#000" stroke-miterlimit="10" stroke-width="4"/>
    <path d="M73.21,80.39l0.86-3.31a5,5,0,0,1-3-4.78c0-2.8,1.94-5.06,4.33-5.06s4.08,2,4.28,4.6l5.57-5.18L89,63.24a26.68,26.68,0,0,0,3.37-3.47l1.92-2.54s7.88,28,2.17,34.8c-3.39,4.05-11.2.49-17-3.07l7.76,29.47H67.68l4.76-32.78,0.76-5.26" fill="none" stroke="#000" stroke-miterlimit="10" stroke-width="4"/>
    <path d="M87.24,118.25c12.49,7.55,22.36,14.68,31.41,24.51H36.23c9.05-9.82,19.06-17,31.55-24.51H87.24Z" fill="none" stroke="#000" stroke-miterlimit="10" stroke-width="4"/>
    <path d="M95,53.32a4.12,4.12,0,0,0-.62-1,8.25,8.25,0,0,0-1.76-1.64,11.61,11.61,0,0,0-2.77-1.38,21.8,21.8,0,0,0-3.61-.91,40.54,40.54,0,0,0-12.43-.05,22.3,22.3,0,0,0-5.38,1.53,11.35,11.35,0,1,0-9,7.26,17.6,17.6,0,0,0-3.1,9.12q0,0.36,0,.73c0,8.94,6.86,16.42,16.06,18.38l0.76-4.94,0.86-3.31a5,5,0,0,1-3-4.78c0-2.8,1.94-5.06,4.33-5.06s4.08,2,4.29,4.6l5.57-5.18L89,63.24a26.68,26.68,0,0,0,3.37-3.47,29.23,29.23,0,0,0,2.08-3A3.83,3.83,0,0,0,95,53.32Z" fill="none" stroke="#000" stroke-miterlimit="10" stroke-width="4"/>
  </g>
</svg>
