<svg xmlns="http://www.w3.org/2000/svg" width="150" height="150" viewBox="0 0 150 150">
  <title>hair</title>
  <rect x="7.24" y="8.24" width="135.51" height="135.51" rx="15" ry="15" fill="none" stroke="#000" stroke-miterlimit="10" stroke-width="4"/>
  <path d="M73.21,81.39l0.86-3.31a5,5,0,0,1-3-4.78c0-2.8,1.94-5.06,4.33-5.06s4.08,2,4.28,4.6l5.57-5.18L89,64.24a26.68,26.68,0,0,0,3.37-3.47l1.92-2.54s7.88,28,2.17,34.8c-3.39,4.05-11.2.49-17-3.07l7.76,29.47H67.68l4.76-32.78,0.76-5.26" fill="none" stroke="#000" stroke-miterlimit="10" stroke-width="4"/>
  <path d="M87.24,119.25c12.49,7.55,22.36,14.68,31.41,24.51H36.23c9.05-9.82,19.06-17,31.55-24.51H87.24Z" fill="none" stroke="#000" stroke-miterlimit="10" stroke-width="4"/>
  <path d="M86.45,46.16A8.8,8.8,0,0,0,89.23,42a9.92,9.92,0,0,0-1-8.4c-0.41-.65-4.41-5.76-1.7-5.18C93.06,29.79,97.35,35.8,98.89,42c0.73,2.94,1.21,6.52,0,9.38A18.75,18.75,0,0,1,96,56a16.22,16.22,0,0,0-1.63,1.78,29.24,29.24,0,0,1-2.08,3A26.68,26.68,0,0,1,89,64.24l-3.68,3.42-5.57,5.18c-0.2-2.58-2-4.6-4.28-4.6S71.1,70.5,71.1,73.3a5,5,0,0,0,3,4.78l-0.86,3.31-0.76,4.94c-9.2-2-16.06-9.43-16.06-18.38q0-.36,0-0.73a18.66,18.66,0,0,1,8.72-14.65,22,22,0,0,1,8.72-3.27C78.23,48.66,83.18,48.8,86.45,46.16Z" fill="none" stroke="#000" stroke-miterlimit="10" stroke-width="4"/>
</svg>
