<svg xmlns="http://www.w3.org/2000/svg" width="150" height="150" viewBox="0 0 150 150">
  <title>hair</title>
  <g>
    <rect x="7.24" y="7.24" width="135.51" height="135.51" rx="15" ry="15" fill="none" stroke="#000" stroke-miterlimit="10" stroke-width="4"/>
    <path d="M73.21,80.39l0.86-3.31a5,5,0,0,1-3-4.78c0-2.8,1.94-5.06,4.33-5.06s4.08,2,4.28,4.6l5.57-5.18L89,63.24a26.68,26.68,0,0,0,3.37-3.47l1.92-2.54s7.88,28,2.17,34.8c-3.39,4.05-11.2.49-17-3.07l7.76,29.47H67.68l4.76-32.78,0.76-5.26" fill="none" stroke="#000" stroke-miterlimit="10" stroke-width="4"/>
    <path d="M87.24,118.25c12.49,7.55,22.36,14.68,31.41,24.51H36.23c9.05-9.82,19.06-17,31.55-24.51H87.24Z" fill="none" stroke="#000" stroke-miterlimit="10" stroke-width="4"/>
    <path d="M92.64,50.65a11.61,11.61,0,0,0-2.77-1.38,21.79,21.79,0,0,0-3.61-.91,40.54,40.54,0,0,0-12.43-.05,22,22,0,0,0-8.72,3.27,18.66,18.66,0,0,0-8.72,14.65q0,0.36,0,.73c0,8.94,6.86,16.42,16.06,18.38l0.76-4.94,0.86-3.31a5,5,0,0,1-3-4.78c0-2.8,1.94-5.06,4.33-5.06s4.08,2,4.28,4.6l5.57-5.18L89,63.24a26.68,26.68,0,0,0,3.37-3.47,29.24,29.24,0,0,0,2.08-3A3.83,3.83,0,0,0,95,53.32a4.12,4.12,0,0,0-.62-1A8.24,8.24,0,0,0,92.64,50.65Z" fill="none" stroke="#000" stroke-miterlimit="10" stroke-width="4"/>
  </g>
</svg>
